<?xml version="1.0"?><svg width="640" height="480" xmlns="http://www.w3.org/2000/svg">
 <title>gray other</title>
 <metadata id="metadata4477">image/svg+xmlSymbol: LastkraftwagenPurodha Blissenbachhttp://commons.mediawiki.org/wiki/Image:Zusatzzeichen_1048-12.svg</metadata>
 <g>
  <title>Layer 1</title>
  <path fill="white" fill-rule="nonzero" stroke-linecap="round" marker-start="none" marker-mid="none" marker-end="none" stroke-miterlimit="4" stroke-dashoffset="0" id="path5404" d="m-62.191151,821.639282l0,97.72522l24.410049,0l0,-96.15741l-24.410049,-1.56781z"/>
  <path fill="white" fill-rule="nonzero" stroke-linecap="round" marker-start="none" marker-mid="none" marker-end="none" stroke-miterlimit="4" stroke-dashoffset="0" id="path5425" d="m34.92593,819.089478l0,97.725159l24.410049,0l0,-96.15741l-24.410049,-1.567749z"/>
  <g id="g5452">
   <path fill="#00007f" fill-rule="evenodd" id="path5439" d="m197.723053,113.670052l0,165.170525l241.847504,0.213562c-14.192474,12.501648 -23.052887,29.73288 -22.93689,52.34903l-240.079025,-0.153656c-2.299805,-87.742294 -117.758709,-87.443573 -120.26757,-0.507629c-17.341255,-0.139038 -19.7467,-4.385651 -19.913925,-21.608246l0,-65.864594c-0.217697,-29.434158 -3.627106,-10.004761 16.581894,-65.821365c20.793861,-59.500092 15.061394,-54.000389 33.869095,-55.535965l110.898918,-8.241661l0,0l0,0zm-48.036026,97.388542l0.957062,-70.175751l-61.737358,4.128189c-11.254646,0.812988 -11.348442,0.889496 -15.314568,14.963898l-15.793285,45.407333c-5.305649,13.927368 -4.461193,18.031586 10.050259,15.995773l81.837891,-10.319443zm461.994125,68.120636l0.117798,37.108368l-39.866699,15.215393l-35.004211,-0.023926c0.142517,-21.517792 -8.151489,-39.615265 -22.857361,-52.327789l97.610474,0.027954z"/>
   <rect transform="matrix(0.617065, 0, 0, 0.665299, 3.20484, 32.458)" fill="#00007f" id="rect5441" y="47.410248" x="356.274078" height="301.70154" width="631.32404"/>
   <circle transform="matrix(0.617065, 0, 0, 0.665299, 3.20484, 32.458)" fill="#00007f" id="circle5443" r="77" cy="447.251565" cx="183.446898"/>
   <circle transform="matrix(0.617065, 0, 0, 0.665299, 3.20484, 32.458)" fill="#00007f" id="circle5445" r="77" cy="447.251565" cx="767.446898"/>
  </g>
 </g>
</svg>